<?xml version="1.0" encoding="utf-8"?>
<!-- Generator: Adobe Illustrator 28.1.0, SVG Export Plug-In . SVG Version: 6.00 Build 0)  -->
<svg version="1.1" id="Calque_1" xmlns="http://www.w3.org/2000/svg" xmlns:xlink="http://www.w3.org/1999/xlink" x="0px" y="0px"
	 viewBox="0 0 1920 1080" style="enable-background:new 0 0 1920 1080;" xml:space="preserve">
<style type="text/css">
	.st0{display:none;}
	.st1{display:inline;fill:#FEFEFE;}
	.st2{display:inline;fill:#A22B18;}
	.st3{display:inline;fill:#333333;}
	.st4{fill:#F7F7F7;}
	.st5{fill:#188708;}
	.st6{fill:#5B5B5B;}
	.st7{fill:url(#SVGID_1_);}
	.st8{fill:#B52A1F;}
	.st9{font-family:'MyriadPro-Regular';}
	.st10{font-size:18px;}
	.st11{fill:#020202;}
	.st12{fill:#3B97D3;}
</style>
<g class="st0">
	<path class="st1" d="M871.23,565.08c-23.85-43.82-47.28-86.88-71.16-130.76c-3.71,6.75-6.96,12.99-10.54,19.04
		c-1.49,2.52-1.15,4.46,0.15,6.84c18.52,33.94,36.98,67.91,55.42,101.9c1.03,1.9,2.13,3.09,4.57,3.04
		C856.48,564.98,863.3,565.08,871.23,565.08z M728.85,565.12c6.93,0,13.22-0.22,19.48,0.09c3.65,0.18,5.66-0.84,7.17-4.35
		c1.88-4.36,4.67-8.32,6.96-12.52c10.91-19.97,21.78-39.96,32.66-59.95c0.87-1.6,1.83-3.13,0.76-5.09
		c-3.73-6.81-7.39-13.66-11.25-20.81C766.03,496.72,747.63,530.58,728.85,565.12z M800.33,497.77c-0.59,0.81-1.02,1.27-1.31,1.8
		c-4.74,8.53-9.49,17.06-14.17,25.62c-6.66,12.17-13.23,24.38-19.92,36.52c-1.39,2.52-1.13,3.47,1.97,3.4
		c6.15-0.14,12.31-0.1,18.46,0c1.74,0.03,2.67-0.58,3.48-2.08c7.44-13.8,14.94-27.57,22.5-41.3c0.75-1.36,0.76-2.32,0.03-3.64
		C807.69,511.47,804.13,504.79,800.33,497.77z M815.46,525.5c-3.87,7.42-7.34,13.96-10.69,20.56c-1.53,3,6.08,18.83,9.32,18.96
		c7.41,0.28,14.83,0.09,22.92,0.09C829.7,551.67,822.77,538.93,815.46,525.5z"/>
	<path class="st2" d="M871.23,565.08c-7.93,0-14.75-0.1-21.57,0.05c-2.43,0.05-3.53-1.14-4.57-3.04
		c-18.44-33.98-36.9-67.96-55.42-101.9c-1.3-2.38-1.64-4.32-0.15-6.84c3.58-6.05,6.83-12.28,10.54-19.04
		C823.95,478.21,847.38,521.26,871.23,565.08z"/>
	<path class="st3" d="M728.85,565.12c18.77-34.54,37.18-68.4,55.78-102.63c3.86,7.15,7.52,14,11.25,20.81
		c1.07,1.96,0.11,3.49-0.76,5.09c-10.88,19.99-21.75,39.98-32.66,59.95c-2.29,4.19-5.09,8.15-6.96,12.52
		c-1.51,3.51-3.52,4.53-7.17,4.35C742.07,564.9,735.78,565.12,728.85,565.12z"/>
	<path class="st2" d="M800.33,497.77c3.8,7.02,7.36,13.7,11.02,20.32c0.73,1.32,0.72,2.28-0.03,3.64
		c-7.56,13.73-15.05,27.51-22.5,41.3c-0.81,1.5-1.74,2.11-3.48,2.08c-6.15-0.1-12.31-0.14-18.46,0c-3.1,0.07-3.36-0.89-1.97-3.4
		c6.69-12.15,13.26-24.36,19.92-36.52c4.69-8.56,9.44-17.08,14.17-25.62C799.32,499.04,799.74,498.58,800.33,497.77z"/>
	<path class="st3" d="M815.46,525.5c7.31,13.43,14.24,26.17,21.55,39.61c-8.09,0-15.51,0.19-22.92-0.09
		c-3.24-0.12-10.85-15.96-9.32-18.96C808.13,539.47,811.59,532.92,815.46,525.5z"/>
</g>
<g>
	<path class="st4" d="M738.09,570.62c0,0.01,0,0.03,0,0.04c3.89,0,7.79-0.17,11.67,0.06c2.42,0.14,3.6-0.77,4.65-2.86
		c6.98-13.9,14.05-27.75,21.18-41.58c0.85-1.65,0.64-2.31-1.08-3.01c-6.97-2.81-14.07-5.13-21.44-6.66
		c-1.95-0.41-2.76,0.06-3.62,1.74c-8.53,16.82-17.12,33.62-25.77,50.38c-1,1.94-0.13,1.91,1.34,1.9
		C729.38,570.59,733.73,570.62,738.09,570.62z"/>
	<path class="st4" d="M896.97,542.71c-1.36-0.54-2.17-0.01-3,0.23c-5.36,1.55-10.82,2.51-16.39,2.86
		c-14.76,0.9-28.65-2.63-42.19-8.1c-14.19-5.73-27.56-13.16-41.46-19.49c-15.69-7.14-31.71-12.65-49.42-12.02
		c-10.6,0.38-20.27,3.05-30.03,8.46c1.4,0,2.12,0.03,2.83-0.01c0.46-0.03,0.92-0.11,1.36-0.24c16.46-4.69,32.64-3.16,48.63,2.22
		c13.72,4.62,26.44,11.44,39.32,17.9c12.9,6.47,25.99,12.55,40.24,15.48c12.62,2.6,25.23,2.56,37.61-1.51
		C888.74,547.09,892.84,545.29,896.97,542.71z"/>
	<path class="st4" d="M883.14,570.7c-2.53-4.91-4.89-9.29-7.05-13.76c-0.89-1.85-1.92-2.48-4.05-2.2
		c-5.97,0.8-11.99,0.78-17.98,0.01c-2.96-0.38-5.91-0.83-9.38-1.32c2.99,5.75,5.72,10.97,8.43,16.21c0.45,0.87,1.13,1.07,2.04,1.07
		C864.31,570.69,873.46,570.7,883.14,570.7z"/>
	<path class="st5" d="M807.91,482.78c-0.21-0.4-0.41-0.79-0.62-1.19 M812.36,477.45c0.51,1,1.53,2.98,1.53,2.98 M807.29,481.59
		c-0.29-0.56-0.88-1.68-0.88-1.68"/>
	<path class="st6" d="M738.09,570.62c-4.36,0-8.71-0.03-13.07,0.01c-1.48,0.01-2.35,0.04-1.34-1.9
		c8.65-16.76,17.24-33.56,25.77-50.38c0.85-1.68,1.66-2.15,3.62-1.74c7.37,1.53,14.47,3.85,21.44,6.66
		c1.72,0.69,1.94,1.35,1.08,3.01c-7.13,13.82-14.21,27.67-21.18,41.58c-1.05,2.09-2.23,3.01-4.65,2.86
		c-3.88-0.23-7.78-0.06-11.67-0.06C738.09,570.65,738.09,570.63,738.09,570.62z"/>
	<linearGradient id="SVGID_1_" gradientUnits="userSpaceOnUse" x1="714.4835" y1="528.9531" x2="896.972" y2="528.9531">
		<stop  offset="0" style="stop-color:#F59E0B"/>
		<stop  offset="0.2292" style="stop-color:#F59E0B"/>
		<stop  offset="0.3306" style="stop-color:#FFFFFF"/>
		<stop  offset="0.5739" style="stop-color:#F59E0B"/>
		<stop  offset="0.9844" style="stop-color:#F59E0B"/>
	</linearGradient>
	<path class="st7" d="M896.97,542.71c-4.13,2.58-8.23,4.37-12.5,5.77c-12.39,4.07-24.99,4.1-37.61,1.51
		c-14.24-2.93-27.33-9-40.24-15.48c-12.88-6.46-25.6-13.29-39.32-17.9c-15.99-5.38-32.17-6.91-48.63-2.22
		c-0.44,0.13-0.9,0.21-1.36,0.24c-0.71,0.04-1.43,0.01-2.83,0.01c9.76-5.4,19.42-8.08,30.03-8.46c17.7-0.63,33.72,4.88,49.42,12.02
		c13.9,6.33,27.28,13.76,41.46,19.49c13.55,5.47,27.43,9,42.19,8.1c5.57-0.34,11.03-1.31,16.39-2.86
		C894.8,542.7,895.62,542.17,896.97,542.71z"/>
	<path class="st6" d="M882.14,570.7c-9.68,0-18.83-0.01-27.98,0.01c-0.92,0-1.59-0.2-2.04-1.07c-2.71-5.24-5.44-10.46-8.43-16.21
		c3.47,0.49,6.42,0.94,9.38,1.32c5.99,0.77,12,0.78,17.98-0.01c2.12-0.28,3.15,0.35,4.05,2.2
		C877.25,561.41,879.61,565.79,882.14,570.7z"/>
</g>
<g id="_x31_n1Jir_00000046308345909667280930000005703224726759948964_">
</g>
<text transform="matrix(1 0 0 1 679.6938 722.0156)"><tspan x="0" y="0" class="st8 st9 st10">Digitalisation </tspan><tspan x="109.44" y="0" class="st11 st9 st10">et</tspan><tspan x="125.24" y="0" class="st8 st9 st10"> Automatisation</tspan></text>
<g id="gtVR5q_00000024723685417911097030000009236586421479369655_">
	<g>
		<path class="st12" d="M801.23,456.55c-0.07,0.05-0.15,0.09-0.22,0.14c-0.18,0.02-0.31,0.1-0.35,0.27c0,0-0.04,0.03-0.04,0.03
			c-1.39,1.14-1.67,3-0.64,4.33l-0.02,0.05c0,0,0.06,0.02,0.06,0.02c-0.03,0.11,0.02,0.17,0.15,0.18c0.07,0.2,0.22,0.35,0.46,0.4
			c0.27,0.31,0.62,0.51,1.06,0.56c0,0,0.05,0.02,0.05,0.02c0.38,0.24,0.83,0.16,1.25,0.24c0,0,0.06,0.02,0.06,0.02
			c0.87,0.55,1.3,1.4,1.84,2.17c-0.02,0.06,0,0.1,0.07,0.11c-0.01,0.16,0.06,0.29,0.21,0.38c-0.01,0.17,0.07,0.29,0.22,0.39
			c0.03,0.26,0.12,0.49,0.37,0.65c-0.02,0.07,0,0.12,0.07,0.15c-0.03,0.15,0.04,0.25,0.18,0.32c0.12,0.38,0.28,0.75,0.61,1.04
			c0,0.19,0.07,0.35,0.27,0.45c-0.02,0.07,0,0.11,0.07,0.14c0.23,0.58,0.52,1.12,0.94,1.6c0.1,0.17,0.19,0.35,0.29,0.52
			c0.05,0.08,0.1,0.17,0.14,0.25c-0.02,0.06,0,0.1,0.06,0.13c0.03,0.26,0.14,0.47,0.37,0.63c-0.02,0.07,0,0.12,0.07,0.15
			c0.05,0.08,0.1,0.17,0.15,0.25c-0.01,0.15,0.05,0.26,0.2,0.34c0,0.18,0.06,0.32,0.24,0.41c0,0.23,0.12,0.41,0.31,0.56
			c0.04,0.07,0.08,0.14,0.12,0.21c0.01,0.23,0.11,0.41,0.31,0.56c0.04,0.07,0.08,0.14,0.12,0.21c0.02,0.22,0.12,0.41,0.3,0.56
			c0.05,0.07,0.09,0.14,0.14,0.21c0.03,0.06,0.06,0.12,0.08,0.18c-0.02,0.1,0.01,0.17,0.14,0.19c0,0,0,0,0,0
			c0.12,0.42,0.35,0.79,0.67,1.12c0,0,0.01,0.03,0.01,0.03c0.05,0.09,0.11,0.18,0.16,0.27c0.07,0.28,0.15,0.56,0.22,0.84
			c-0.13,0.09-0.26,0.17-0.39,0.26c0,0-0.02,0.01-0.02,0.01c-0.11,0.05-0.21,0.1-0.32,0.15l-0.07-0.01c0,0-0.04,0.06-0.04,0.06
			c-0.18-0.01-0.32,0.06-0.42,0.2c-0.18-0.01-0.33,0.05-0.44,0.19c-0.1,0.05-0.2,0.1-0.31,0.14c-0.23,0.01-0.42,0.1-0.57,0.26
			c-0.1,0.04-0.2,0.09-0.3,0.13c-0.31-0.01-0.57,0.1-0.78,0.3c-0.12-0.04-0.18,0.01-0.21,0.11c-0.18,0-0.33,0.04-0.42,0.2
			c-0.18-0.01-0.32,0.05-0.41,0.2c-0.19,0-0.35,0.05-0.45,0.2c-0.28,0.05-0.56,0.08-0.81-0.08c0,0,0.02,0.03,0.02,0.03
			c-0.08-0.1-0.16-0.21-0.24-0.31c-0.03-0.08-0.07-0.16-0.1-0.24c-0.01-0.26-0.13-0.48-0.35-0.65c0.03-0.06,0.01-0.1-0.06-0.13
			c0.02-0.16-0.04-0.28-0.19-0.36c0,0-0.01-0.02-0.01-0.02c-0.06-0.1-0.11-0.2-0.17-0.29l0.01-0.06c0,0-0.06-0.03-0.06-0.03
			c0-0.11-0.02-0.21-0.19-0.2c0,0,0.01,0,0.01,0c-0.08-0.06-0.15-0.13-0.23-0.19c0.14-0.42-0.34-0.62-0.41-0.96
			c0.04-0.16-0.03-0.27-0.18-0.34c-0.01-0.34-0.22-0.6-0.46-0.83c-0.04-0.3-0.21-0.55-0.43-0.77c0.01-0.17-0.05-0.3-0.22-0.38
			c0.01-0.17-0.03-0.31-0.22-0.39c0.01-0.16-0.04-0.3-0.21-0.39c-0.1-0.45-0.32-0.84-0.64-1.19c-0.03-0.06-0.06-0.11-0.08-0.17
			c0.03-0.11,0-0.19-0.13-0.23c0.02-0.07-0.01-0.13-0.08-0.16c-0.04-0.08-0.09-0.16-0.13-0.24c0.02-0.07-0.01-0.11-0.07-0.15
			c-0.05-0.08-0.1-0.15-0.15-0.23c0.02-0.07-0.01-0.12-0.08-0.16c-0.05-0.07-0.09-0.14-0.14-0.21c0.01-0.16-0.04-0.29-0.21-0.36
			c-0.38-0.81-0.79-1.6-1.39-2.31c0,0,0.01-0.05,0.01-0.05c-0.19-0.63-0.52-1.2-0.94-1.74c-0.04-0.22-0.13-0.42-0.33-0.57
			c-0.05-0.08-0.1-0.16-0.15-0.24c0.02-0.07-0.01-0.12-0.08-0.15c0.02-0.11-0.01-0.19-0.14-0.21c0,0,0.01,0.01,0.01,0.01
			c-0.06-0.3-0.17-0.58-0.45-0.77c0,0,0.01,0.01,0.01,0.01c0.01-0.17-0.06-0.3-0.24-0.38c-0.01-0.15-0.01-0.31-0.18-0.4
			c0.01-0.17-0.05-0.3-0.22-0.39c0-0.16-0.04-0.3-0.2-0.39c-0.63-1.43-1.47-2.76-2.3-4.1c-0.39-0.7-0.78-1.4-1.17-2.1
			c0.05-0.19-0.04-0.32-0.22-0.41c0.01-0.15-0.02-0.3-0.18-0.39c-0.29-0.7-0.62-1.37-1.09-1.98c0.02-0.07,0-0.12-0.08-0.14
			c0.01-0.11-0.01-0.2-0.16-0.18c-0.42-0.84-0.85-1.68-1.27-2.52c0.02-0.36-0.15-0.65-0.4-0.91c0.06-0.17,0.01-0.32-0.11-0.45
			c0.04-0.21,0-0.41-0.14-0.58c-0.01-0.45-0.02-0.91-0.03-1.36c0.14-0.17,0.22-0.36,0.19-0.58c0.03-0.08,0.06-0.17,0.09-0.25
			c0.16-0.07,0.21-0.19,0.21-0.34c0,0,0-0.05,0-0.05c0.16-0.07,0.22-0.19,0.21-0.33c0,0,0-0.05,0-0.05
			c0.15-0.07,0.22-0.18,0.18-0.33c0.28-0.52,0.57-1.04,0.85-1.56c0.16,0.01,0.17-0.09,0.17-0.19c0.17-0.09,0.24-0.22,0.23-0.39
			c0.04-0.06,0.07-0.12,0.11-0.19c0.06-0.1,0.11-0.21,0.17-0.31c0.29-0.23,0.45-0.52,0.5-0.86c0,0-0.01-0.02-0.01-0.03
			c0.23-0.12,0.34-0.31,0.34-0.55c0.18-0.09,0.23-0.23,0.22-0.4c0.18-0.08,0.26-0.2,0.23-0.38c0,0,0.02-0.07,0.02-0.07
			c0.2-0.11,0.28-0.28,0.3-0.48c0.47-0.9,0.94-1.79,1.4-2.69c0.06-0.08,0.13-0.16,0.19-0.24c0,0,0.01-0.01,0.01-0.01
			c0.15,0.01,0.19-0.08,0.2-0.19c0.18-0.08,0.23-0.23,0.22-0.39c0.18-0.08,0.23-0.22,0.21-0.39c0.18-0.08,0.24-0.22,0.22-0.39
			c0.03-0.06,0.06-0.13,0.09-0.19c0,0,0-0.04,0-0.04c0.24-0.12,0.34-0.3,0.34-0.54l0.06-0.03c0,0-0.02-0.06-0.02-0.06
			c0.06-0.1,0.12-0.19,0.18-0.29c0.21-0.1,0.29-0.27,0.25-0.48c0.07-0.1,0.14-0.2,0.21-0.3c0.18-0.11,0.3-0.25,0.22-0.46
			c0.07-0.1,0.15-0.2,0.22-0.3c0.17-0.08,0.21-0.22,0.19-0.37c0.18-0.09,0.25-0.23,0.21-0.41c0.14-0.26,0.28-0.51,0.43-0.77
			c0.16,0.01,0.2-0.08,0.19-0.2c0.07-0.02,0.08-0.06,0.05-0.12c0.06-0.09,0.12-0.18,0.18-0.27c0.16-0.14,0.31-0.27,0.25-0.5
			c0.25-0.17,0.39-0.38,0.39-0.67c0,0,0.01-0.01,0.01-0.01c0.27-0.2,0.41-0.45,0.44-0.76c0,0,0,0,0,0c0.8-1.09,1.35-2.3,1.99-3.48
			c0.45-0.83,0.92-1.64,1.38-2.46c0.14-0.25,0.38-0.25,0.64-0.23c0,0,0-0.02,0-0.02c0.01,0.18,0.09,0.32,0.26,0.42
			c0,0.21,0.07,0.39,0.26,0.51c0.02,0.28,0.16,0.5,0.37,0.69l0,0.07c0,0,0.06,0.03,0.06,0.03c-0.01,0.15,0.04,0.28,0.2,0.36
			c0,0,0.01,0.02,0.01,0.02c0.05,0.1,0.11,0.2,0.16,0.3l-0.01,0.06c0,0,0.06,0.03,0.06,0.03c-0.01,0.16,0.04,0.29,0.2,0.36
			c0.68,1.24,1.37,2.48,2.05,3.73c0.09,0.1,0.19,0.2,0.28,0.31c0,0,0,0.06,0,0.06c0.06,0.31,0.2,0.58,0.45,0.81
			c0.03,0.06,0.06,0.12,0.09,0.18c0.04,0.06,0.09,0.12,0.13,0.18c0.03,0.07,0.05,0.14,0.08,0.21c0.04,0.08,0.08,0.15,0.13,0.23
			c-0.01,0.15-0.01,0.29,0.17,0.36c0.08,0.1,0.17,0.2,0.25,0.3c0,0,0.01,0.06,0.01,0.06c-0.01,0.18,0.07,0.32,0.23,0.41
			c-0.01,0.16,0.04,0.29,0.2,0.37c0,0.17,0.06,0.3,0.23,0.39c0,0,0,0,0,0c0.06,0.1,0.13,0.21,0.19,0.31
			c0.04,0.09,0.08,0.19,0.12,0.28c0.04,0.06,0.08,0.13,0.13,0.19c0,0.24,0.12,0.43,0.31,0.59c0.04,0.07,0.08,0.13,0.12,0.2
			c0,0.16,0.07,0.28,0.22,0.37c0.16,0.54,0.47,1.01,0.83,1.45c0.09,0.17,0.19,0.33,0.28,0.5c0.05,0.09,0.1,0.19,0.15,0.28
			l-0.01,0.06c0,0,0.06,0.04,0.06,0.04c-0.01,0.16,0.05,0.28,0.2,0.37c0,0,0.01,0.01,0.01,0.01c0.06,0.1,0.12,0.19,0.17,0.29
			l-0.01,0.07c0,0,0.06,0.04,0.06,0.04c0.05,0.08,0.1,0.16,0.15,0.24c0,0-0.02-0.01-0.02-0.01c-0.03,0.07,0,0.12,0.08,0.15
			c-0.01,0.17,0.06,0.3,0.22,0.39c-0.02,0.16,0.04,0.28,0.2,0.36c0.01,0.24,0.13,0.44,0.31,0.61c0.04,0.07,0.07,0.13,0.11,0.2
			c0.01,0.24,0.14,0.43,0.32,0.6c0.04,0.06,0.08,0.11,0.11,0.17c0.02,0.24,0.14,0.44,0.32,0.61c0.04,0.06,0.07,0.11,0.11,0.17
			c0.01,0.24,0.14,0.43,0.31,0.6c0.04,0.06,0.08,0.12,0.11,0.17c0,0,0,0.01,0,0.01c0.06,0.1,0.12,0.2,0.18,0.31l-0.02,0.05
			l0.05,0.03c-0.01,0.16,0.07,0.28,0.22,0.37c0,0.17,0.05,0.31,0.22,0.4c0,0.16,0.05,0.29,0.21,0.38c0,0,0.01,0.01,0.01,0.01
			c0.06,0.09,0.12,0.19,0.18,0.28l-0.01,0.07c0,0,0.06,0.04,0.06,0.04c0.06,0.1,0.11,0.19,0.17,0.29c-0.01,0.2,0.09,0.36,0.27,0.49
			c-0.02,0.16,0.04,0.28,0.2,0.36c0,0,0.01,0.02,0.01,0.02c0.06,0.1,0.11,0.19,0.17,0.29c0.05,0.1,0.1,0.19,0.15,0.29
			c0.04,0.06,0.08,0.13,0.12,0.19c0.03,0.26,0.16,0.46,0.37,0.63c0,0-0.03,0.06-0.03,0.06l0.08,0.02c0,0.18,0.07,0.34,0.24,0.44
			c-0.01,0.17,0.08,0.29,0.22,0.38c-0.01,0.17,0.08,0.3,0.22,0.4c0.05,0.08,0.09,0.17,0.14,0.25c0.66,1.47,1.49,2.86,2.4,4.21
			c-0.01,0.16,0.05,0.28,0.21,0.36c0.01,0.17,0.06,0.32,0.23,0.41c-0.01,0.15,0.04,0.28,0.2,0.36c0,0.17,0.06,0.32,0.22,0.42
			c-0.01,0.16,0.05,0.29,0.21,0.37c0,0,0.01,0.01,0.01,0.01c0.06,0.1,0.12,0.2,0.17,0.3l-0.02,0.06c0,0,0.06,0.03,0.06,0.03
			c0.07,0.13,0.13,0.26,0.2,0.39c0.55,1.21,1.19,2.37,1.95,3.48c0,0.16,0.05,0.29,0.21,0.37c0,0.17,0.06,0.31,0.22,0.41
			c0,0.16,0.04,0.29,0.21,0.38c0,0,0.01,0.01,0.01,0.01c0.06,0.1,0.12,0.2,0.18,0.3l-0.01,0.05c0,0,0.05,0.03,0.05,0.03
			c0.03,0.27,0.16,0.5,0.39,0.68l-0.01,0.07c0,0,0.06,0.04,0.06,0.04c-0.01,0.16,0.06,0.28,0.21,0.37c0,0,0.01,0.02,0.01,0.02
			c0.06,0.1,0.11,0.2,0.17,0.3l-0.01,0.06c0,0,0.06,0.03,0.06,0.03c-0.01,0.16,0.05,0.28,0.21,0.36c0,0,0.01,0.02,0.01,0.02
			c0.05,0.1,0.11,0.2,0.16,0.29l-0.01,0.06c0,0,0.06,0.04,0.06,0.04c-0.01,0.16,0.03,0.29,0.2,0.37c0.07,0.14,0.14,0.27,0.22,0.41
			c0.06,0.1,0.12,0.2,0.18,0.3c-0.01,0.19,0.06,0.36,0.24,0.47c0.06,0.1,0.12,0.21,0.18,0.31c0,0.19,0.07,0.35,0.25,0.46
			c-0.01,0.16,0.05,0.29,0.21,0.37c-0.01,0.17,0.05,0.31,0.22,0.4c-0.01,0.16,0.05,0.29,0.21,0.38c0,0.16,0.04,0.31,0.21,0.4
			c0,0.16,0.05,0.3,0.22,0.39c0.03,0.07,0.06,0.13,0.09,0.2c0.04,0.06,0.08,0.13,0.12,0.19c0.03,0.06,0.06,0.13,0.08,0.19
			c0.04,0.07,0.08,0.14,0.13,0.21c-0.01,0.3,0.18,0.53,0.35,0.77c0.03,0.25,0.06,0.5,0.08,0.75c0,0,0,0,0,0
			c-0.27,0.05-0.48,0.19-0.64,0.39c0,0,0,0,0,0c-0.21-0.01-0.39,0.06-0.5,0.23c-0.26,0.11-0.52,0.22-0.78,0.33
			c-0.21-0.03-0.37,0.04-0.48,0.19c-0.17-0.01-0.31,0.04-0.4,0.18c-0.18,0-0.34,0.04-0.44,0.19c-0.26,0.02-0.47,0.12-0.64,0.3
			c-0.07,0.04-0.14,0.08-0.21,0.12c0,0,0,0,0,0c-0.19-0.01-0.34,0.05-0.43,0.2c0,0,0,0,0,0c-0.31,0.03-0.58,0.14-0.8,0.34
			c0,0-0.06,0-0.06,0c-0.53,0.02-0.71-0.33-0.9-0.68c-0.39-0.74-0.68-1.52-1.25-2.18c0,0,0,0,0,0c-0.1-0.24-0.16-0.49-0.29-0.72
			c-1.94-3.52-3.87-7.04-5.82-10.55c-1.61-2.91-3.23-5.81-4.85-8.71c0-0.22-0.08-0.41-0.25-0.57c0.08-0.51,0.16-1.03,0.24-1.54
			c0,0,0,0,0,0c1.58-2.26-0.14-5.25-3.24-5.64c-0.58-0.18-1.16-0.16-1.73,0.02c-0.21-0.05-0.39-0.01-0.53,0.14
			c-0.42-0.04-0.72,0.14-0.97,0.41c-0.4,0.06-0.68,0.26-0.84,0.59c-0.4,0.25-0.68,0.56-0.72,1.02c-0.15,0.07-0.2,0.19-0.17,0.34
			c-0.01,0.08-0.03,0.17-0.04,0.25c-0.21,0.13-0.22,0.32-0.18,0.53c-0.28,0.58-0.21,1.16,0.01,1.74c-0.02,0.19,0.01,0.36,0.19,0.49
			c-0.02,0.2,0.04,0.37,0.23,0.48c0.07,0.1,0.13,0.2,0.2,0.3c0.1,0.42,0.41,0.69,0.81,0.88c0.1,0.06,0.19,0.13,0.29,0.19
			c0,0-0.01-0.01-0.01-0.01c0.02,0.12,0.1,0.16,0.23,0.14c0.03,0.06,0.07,0.08,0.14,0.07c0.1,0.05,0.19,0.1,0.29,0.16
			c0.07,0.09,0.16,0.14,0.28,0.06c0.09,0.13,0.21,0.16,0.37,0.13c0.14,0.01,0.28,0.03,0.42,0.04c0.12,0.13,0.26,0.18,0.44,0.15
			c0.1,0.02,0.19,0.03,0.29,0.05c1.25,0.57,1.84,1.66,2.51,2.67c0,0,0,0.01,0,0.01c0.06,0.11,0.12,0.21,0.18,0.32
			c0.04,0.09,0.09,0.18,0.13,0.28c0.04,0.06,0.08,0.12,0.12,0.18c0,0.16,0.03,0.3,0.2,0.39c0.12,0.44,0.27,0.86,0.64,1.19
			c0.03,0.06,0.05,0.12,0.08,0.18c-0.03,0.11,0.01,0.18,0.14,0.2c0,0-0.01,0-0.01,0c0,0.16,0.06,0.29,0.22,0.38
			c0.01,0.16,0.07,0.3,0.23,0.39c1.04,2.02,1.94,4.1,3.22,6.02c0.03,0.07,0.07,0.13,0.1,0.2c0.04,0.06,0.08,0.12,0.12,0.18
			c0,0,0,0,0,0c0.98,1.83,1.93,3.67,2.94,5.49c1.09,1.96,2.25,3.89,3.1,5.95c0,0,0,0,0,0c-0.23,0.06-0.44,0.15-0.57,0.35
			c0,0-0.07,0.03-0.07,0.03c-0.31,0.04-0.57,0.15-0.78,0.36c-0.1,0.03-0.19,0.06-0.29,0.09c-0.96,0.33-1.95,0.61-2.73,1.26
			c0,0-0.06,0-0.06,0c-0.22-0.01-0.41,0.04-0.54,0.21c-0.23-0.06-0.46-0.12-0.7-0.19c-0.09-0.26-0.19-0.51-0.46-0.68
			c-0.04-0.34-0.2-0.62-0.47-0.85c-0.23-0.7-0.61-1.33-1.08-1.92l-0.01-0.01c-0.03-0.3-0.17-0.56-0.42-0.76
			c-0.03-0.08-0.05-0.15-0.08-0.23c0.04-0.11-0.04-0.14-0.13-0.16c-0.03-0.08-0.05-0.15-0.08-0.23c0.04-0.12-0.04-0.15-0.14-0.17
			c-0.03-0.07-0.05-0.15-0.08-0.22c0.04-0.11-0.04-0.14-0.13-0.16c-0.03-0.07-0.05-0.15-0.08-0.22c-0.05-0.06-0.09-0.12-0.14-0.17
			l-0.01-0.01c-0.15-0.49-0.36-0.96-0.78-1.32c0.04-0.22-0.08-0.35-0.29-0.43c-0.02-0.15-0.01-0.31-0.2-0.39
			c-0.16-0.32-0.32-0.64-0.48-0.97c-0.11-0.42-0.31-0.8-0.62-1.13c-0.03-0.16-0.03-0.34-0.23-0.42c-0.01-0.15,0-0.31-0.18-0.39
			c-0.01-0.16-0.04-0.3-0.21-0.39c0-0.16-0.05-0.3-0.22-0.39c-0.01-0.16-0.05-0.3-0.22-0.39c-0.02-0.27-0.16-0.49-0.4-0.65
			c0.03-0.06,0-0.11-0.07-0.13c-0.05-0.09-0.1-0.17-0.15-0.26c-0.06-0.34-0.22-0.63-0.46-0.9c0.03-0.22-0.02-0.42-0.2-0.59
			c0.05-0.45,0.1-0.9,0.15-1.36c0.01-0.06,0.03-0.12,0.04-0.19c0.06-0.04,0.07-0.09,0.03-0.15c0.22-0.43,0.23-0.86,0.01-1.3
			l0.04-0.05c0,0-0.05-0.05-0.05-0.05c0.03-0.15,0-0.27-0.16-0.35c0.06-0.44-0.19-0.74-0.53-1.01c-0.06-0.07-0.12-0.13-0.19-0.2
			c-0.22-0.34-0.57-0.52-0.99-0.61c-0.1-0.04-0.2-0.08-0.3-0.11c-0.17-0.03-0.35-0.05-0.52-0.08c-0.62-0.29-1.25-0.21-1.87-0.01
			c-0.15,0.04-0.29,0.08-0.44,0.13c-0.07,0.03-0.13,0.06-0.2,0.1c-0.07,0.02-0.15,0.04-0.22,0.06
			C801.33,456.4,801.25,456.43,801.23,456.55z"/>
		<path class="st6" d="M835.88,481.3c0.03,0.08,0.05,0.15,0.08,0.23c0.03,0.25,0.13,0.47,0.35,0.62c0.03,0.07,0.06,0.14,0.09,0.21
			c0.69,1.39,1.35,2.8,2.08,4.18c1.42,2.7,2.68,5.47,4.3,8.06c0.03,0.08,0.06,0.15,0.09,0.23c0.12,0.28,0.23,0.58,0.37,0.85
			c2.65,5.13,5.29,10.27,7.95,15.39c0.82,1.57,1.53,3.19,2.51,4.68c0,0,0.03,0.08,0.03,0.08c0.26,0.81,0.64,1.57,1.11,2.28
			c-0.02,0.18,0.02,0.33,0.21,0.42c0.13,0.45,0.28,0.88,0.64,1.22c0.04,0.08,0.07,0.16,0.11,0.24c-0.06,0.28-0.06,0.54,0.32,0.61
			c0,0,0.01,0.02,0.01,0.02c0.03,0.33,0.18,0.59,0.42,0.82c0.13,0.55,0.4,1.03,0.73,1.48c-0.04,0.11,0.01,0.18,0.12,0.22
			c-0.01,0.17,0.03,0.32,0.2,0.41c0.01,0.32,0.15,0.56,0.4,0.76c0,0.23,0.1,0.42,0.27,0.57c0,0-0.04-0.01-0.04-0.01l0.04,0
			c0.01,0.23,0.12,0.41,0.31,0.56c-0.05,0.11,0,0.16,0.12,0.18c0,0.18,0.03,0.35,0.23,0.43c-0.01,0.18,0.06,0.32,0.22,0.41
			c-0.01,0.18,0.05,0.33,0.22,0.42c0.06,0.1,0.11,0.19,0.17,0.29c-0.01,0.15,0.04,0.28,0.19,0.36c0.08,0.15,0.16,0.31,0.24,0.46
			c1.82,3.57,3.64,7.14,5.46,10.71c0.19,0.37,0.38,0.74,0.57,1.12c0.63,1.26,0.63,1.26-0.82,1.38c-0.64-0.19-1.29-0.18-1.95-0.11
			c-0.49-0.13-0.99-0.18-1.5-0.1c-0.27-0.18-0.56-0.19-0.87-0.12c-0.2-0.11-0.41-0.15-0.64-0.08c-0.2-0.16-0.42-0.17-0.65-0.1
			c-0.27-0.14-0.55-0.18-0.85-0.13c-0.19-0.18-0.41-0.2-0.66-0.14c-0.14-0.02-0.28-0.05-0.42-0.07c-0.13-0.14-0.28-0.15-0.45-0.1
			c-0.29-0.12-0.58-0.25-0.91-0.14c-0.3-0.24-0.66-0.26-1.02-0.25c-0.14-0.02-0.29-0.05-0.43-0.07c-0.07-0.01-0.13-0.02-0.2-0.04
			c0,0,0,0.01,0,0.01c-0.19-0.17-0.41-0.21-0.66-0.16c-0.41-0.2-0.84-0.28-1.29-0.25c-0.19-0.17-0.41-0.19-0.65-0.14
			c-0.14-0.03-0.28-0.06-0.42-0.09c-0.12-0.14-0.28-0.14-0.45-0.09c-0.14-0.03-0.28-0.06-0.42-0.1c-0.31-0.24-0.68-0.25-1.05-0.28
			c-0.2-0.14-0.42-0.2-0.66-0.16c-0.18-0.18-0.41-0.23-0.66-0.18c-0.23-0.18-0.5-0.26-0.8-0.22c-0.05-0.12-0.14-0.14-0.26-0.09
			c-0.34-0.19-0.7-0.31-1.1-0.3c-0.26-0.27-0.64-0.28-0.97-0.39c-2.3-0.72-4.64-1.35-6.87-2.27c-1.36-0.56-2.67-1.23-4-1.84
			c-0.02-0.08-0.08-0.11-0.16-0.1c-0.21-0.33-0.57-0.45-0.91-0.59c-0.08-0.16-0.22-0.22-0.39-0.24c-0.17-0.27-0.33-0.54-0.67-0.63
			c0,0,0.01,0.01,0.01,0.01c-0.29-0.4-0.46-0.89-0.9-1.19c-0.16-0.29-0.33-0.59-0.49-0.88c0.06-0.13-0.04-0.17-0.14-0.2
			c-0.03-0.07-0.06-0.14-0.08-0.21c-0.13-0.62-0.39-1.17-0.8-1.66c-0.02-0.34-0.2-0.61-0.44-0.84c-0.01-0.29-0.09-0.54-0.37-0.71
			l0.01-0.08c0,0-0.07-0.04-0.07-0.04c0.02-0.35-0.14-0.61-0.4-0.83c-0.23-0.84-0.66-1.58-1.17-2.28c-0.01-0.49-0.23-0.89-0.56-1.25
			c0.02-0.18-0.03-0.33-0.21-0.42c-0.18-0.51-0.33-1.04-0.79-1.4c-0.03-0.09-0.05-0.17-0.08-0.26c0.02-0.32-0.2-0.52-0.39-0.73
			c-0.02-0.54-0.3-0.96-0.65-1.35c-1.95-4.17-4.01-8.28-6.24-12.32c0.02-0.08-0.01-0.13-0.09-0.15c-0.13-0.32-0.25-0.64-0.4-0.95
			c-1.6-3.11-3.22-6.22-4.82-9.33c-1.33-2.58-2.66-5.17-3.99-7.75c0.01-0.2-0.06-0.36-0.23-0.47c-0.3-0.72-0.83-1.43-0.85-2.16
			c-0.02-0.92,1.25-0.8,1.74-1.39c0.19,0.02,0.33-0.06,0.44-0.21c0.11-0.05,0.21-0.11,0.32-0.16c0.22,0,0.41-0.06,0.55-0.24
			c0.11-0.06,0.22-0.11,0.33-0.17c0.1-0.04,0.2-0.08,0.3-0.12c0.32-0.13,0.68-0.22,0.96-0.41c0.71-0.47,1.11-0.26,1.46,0.44
			c0.31,0.64,0.55,1.32,1.04,1.87c0,0,0.02,0.05,0.02,0.05c1.07,2.25,2.09,4.52,3.41,6.65c0.03,0.07,0.06,0.14,0.08,0.21
			c1.2,2.65,2.54,5.23,3.98,7.77c-0.03,0.07-0.01,0.11,0.07,0.14c0.47,1.32,1.13,2.56,1.91,3.74c-0.01,0.18,0.06,0.33,0.23,0.43
			c-0.01,0.16,0.03,0.3,0.2,0.37c0.01,0.18,0.05,0.35,0.23,0.46c-0.02,0.17,0.05,0.3,0.2,0.38c0,0,0.01,0.03,0.01,0.03
			c0.05,0.31,0.16,0.6,0.41,0.81c0,0,0.01,0.02,0.01,0.02c0.56,1.45,1.27,2.84,2.15,4.14c0,0,0.01,0.02,0.01,0.02
			c0.3,0.88,0.81,1.65,1.29,2.44c0,0,0.02,0.05,0.02,0.05c0.16,0.56,0.39,1.08,0.8,1.52c-0.03,0.08,0,0.13,0.08,0.15
			c0.71,1.19,0.71,2.41,0.19,3.67c-0.12,0.28-0.22,0.59-0.12,0.91c-0.15,0.27-0.14,0.55-0.02,0.83c-0.08,0.72,0.21,1.3,0.72,1.79
			l0,0.06c0,0,0.05,0.02,0.05,0.02c0.2,0.5,0.54,0.85,1.07,1.03c0,0,0.02,0.01,0.02,0.01c0.07,0.05,0.13,0.1,0.2,0.15
			c0.09,0.18,0.24,0.25,0.44,0.24c0.44,0.34,0.94,0.49,1.5,0.45c0.36,0.13,0.72,0.13,1.08-0.01c0.29,0.06,0.55,0.05,0.77-0.18
			l0.05,0.02c0,0,0.04-0.04,0.04-0.04c0.19,0.03,0.35-0.01,0.45-0.19c0.19,0.01,0.34-0.06,0.42-0.23c0.49-0.12,0.85-0.4,1.06-0.84
			c0.18-0.05,0.25-0.18,0.25-0.35c0.13-0.05,0.19-0.14,0.18-0.28c0.11-0.06,0.16-0.13,0.1-0.25c0.31-0.31,0.41-0.7,0.45-1.12
			c0,0-0.03-0.04-0.03-0.04c0.42-1.8-0.3-3.56-1.8-4.43c0,0-0.07-0.03-0.07-0.03c-0.31-0.39-0.74-0.52-1.22-0.54
			c-0.32-0.22-0.68-0.29-1.07-0.26c-1.11-0.34-1.82-1.08-2.31-2.09c-0.34-0.7-0.6-1.45-1.13-2.06c0.01-0.18-0.03-0.33-0.21-0.42
			c-0.33-0.88-0.76-1.72-1.34-2.48c0.01-0.18-0.04-0.33-0.22-0.42c-0.49-1.15-1-2.28-1.69-3.34c-0.1-0.57-0.38-1.05-0.75-1.48
			c-0.47-0.96-0.93-1.92-1.41-2.87c-0.8-1.6-1.45-3.27-2.47-4.77c-0.1-0.57-0.38-1.04-0.74-1.49c-0.81-1.93-1.74-3.8-2.82-5.61
			c0.01-0.18-0.04-0.33-0.22-0.41c-0.24-0.76-0.59-1.46-1.06-2.11c0.03-0.08,0.01-0.14-0.07-0.18c-0.53-1.36-1.11-2.7-1.89-3.95
			c0.01-0.13,0.02-0.26,0.02-0.39c0.96-0.51,2.05-0.78,2.95-1.42c0.09-0.05,0.18-0.09,0.27-0.14c0.41-0.03,0.75-0.19,1.02-0.49
			c0.09-0.04,0.18-0.08,0.27-0.12c0.74-0.31,1.12-0.03,1.44,0.66c0.6,1.28,1.33,2.51,2,3.77c-0.01,0.18,0.03,0.33,0.21,0.42
			c1.9,4.06,3.96,8.05,6.15,11.97c0.59,1.06,1,2.03,0.62,3.2c-0.02,0.14-0.05,0.28-0.07,0.42c-0.23,0.46-0.37,0.94-0.38,1.45
			c-0.01,0.14-0.02,0.28-0.03,0.42c-0.12,0.25-0.03,0.47,0.08,0.69c0.74,1.37,1.49,2.73,2.23,4.09c-0.01,0.18,0.05,0.33,0.22,0.42
			c0.34,0.87,0.72,1.72,1.24,2.51c0.04,0.34,0.16,0.63,0.48,0.82c0.01,0.13,0.07,0.2,0.21,0.2c0.07,0.18,0.23,0.25,0.42,0.27
			c0.1,0.16,0.25,0.21,0.44,0.19c0.11,0.15,0.26,0.19,0.45,0.18c0.16,0.19,0.38,0.24,0.61,0.26c0,0-0.02-0.01-0.02-0.01
			c0.38,0.7,1.2,0.49,1.77,0.8c0.09,0.17,0.25,0.22,0.43,0.22c0.09,0.16,0.24,0.22,0.42,0.23c0.05,0.16,0.16,0.21,0.32,0.21
			c0.31,0.5,0.65,0.98,0.93,1.5c0.74,1.37,1.46,2.74,2.19,4.12c0.01,0.25,0.1,0.45,0.32,0.6c-0.04,0.11,0,0.18,0.12,0.2c0,0,0,0,0,0
			c0.74,1.49,1.45,2.99,2.23,4.46c0.53,0.99,0.64,1.94,0.18,2.97c-0.33,0.74-0.34,1.55-0.24,2.35c0.38,2.91,4.15,4.71,6.6,3.15
			c0,0,0.06-0.01,0.06-0.01c0.3-0.05,0.52-0.2,0.67-0.45c0.07-0.06,0.14-0.12,0.21-0.18c0.08-0.08,0.17-0.15,0.25-0.23
			c0.06-0.06,0.12-0.12,0.19-0.19c0.29-0.14,0.44-0.36,0.47-0.67c0,0,0.01-0.05,0.01-0.05c0.36-0.33,0.52-0.73,0.5-1.2
			c0.23-0.62,0.25-1.25-0.01-1.87c-0.05-0.7-0.33-1.28-0.85-1.77c0,0-0.02-0.03-0.02-0.03c-0.32-0.53-0.78-0.88-1.39-1.05
			l-0.08-0.04c0,0-0.09,0.01-0.09,0.01c-0.23-0.31-0.55-0.42-0.93-0.39c-0.14-0.02-0.29-0.04-0.43-0.05
			c-0.29-0.06-0.57-0.13-0.86-0.19c-0.19-0.09-0.39-0.17-0.58-0.26c-0.6-0.59-1.03-1.29-1.4-2.03c-0.65-1.3-1.2-2.65-2.08-3.84
			l0.01-0.09c0,0-0.08-0.05-0.08-0.05c0.03-0.13-0.02-0.23-0.15-0.29l0.02-0.07c0,0-0.07-0.04-0.07-0.04
			c-0.98-2.02-1.96-4.04-2.95-6.05c-0.13-0.27-0.34-0.53-0.68-0.63c-0.07-0.17-0.22-0.22-0.39-0.21c-0.05-0.11-0.13-0.16-0.25-0.12
			c-0.14-0.14-0.3-0.19-0.5-0.13c-1.23-0.57-2.47-1.14-3.7-1.7l-0.06,0.04c0,0,0.05-0.05,0.05-0.05c-0.31-0.52-0.62-1.04-0.92-1.57
			c0.02-0.18-0.04-0.32-0.2-0.42c-0.04-0.33-0.19-0.61-0.45-0.83c0-0.18-0.07-0.32-0.24-0.41c-0.02-0.47-0.34-0.81-0.52-1.22
			c-0.51-1.14-1.32-2.2-0.89-3.55c0.03-0.21,0.06-0.41,0.09-0.62c0.56-1.26,0.72-2.49-0.4-3.57c0,0,0.01,0.01,0.01,0.01
			c-0.93-2.04-1.91-4.06-3.06-6c0.02-0.18-0.03-0.33-0.2-0.42c-0.05-0.16-0.08-0.34-0.15-0.49c-1.79-3.53-3.59-7.06-5.38-10.59
			c0,0,0.01-0.01,0.01-0.01c-0.02-0.22-0.09-0.42-0.29-0.56c-0.01-0.24,0.01-0.47,0.2-0.65c1.94-0.86,3.88-1.73,5.81-2.59
			c0.08,0.04,0.16,0.08,0.25,0.12c0.06,0.08,0.11,0.16,0.17,0.23c0.01,0.25,0.12,0.45,0.31,0.62c0.04,0.07,0.08,0.13,0.12,0.2
			c0.37,1.03,0.94,1.96,1.5,2.9c0.25,0.89,0.74,1.66,1.27,2.41c0.05,0.11,0.1,0.21,0.15,0.32c0.04,0.06,0.07,0.12,0.11,0.17
			c0,0.18,0.04,0.34,0.21,0.43c-0.01,0.17,0.05,0.32,0.22,0.4c0,0.18,0.05,0.34,0.23,0.44C835.65,481.08,835.73,481.21,835.88,481.3
			z"/>
		<path class="st6" d="M778.95,466.11l0.06-0.04c0,0-0.01-0.07-0.01-0.07c0.05-0.09,0.11-0.19,0.16-0.28
			c0.07-0.04,0.09-0.09,0.05-0.15c0.04-0.14,0.09-0.28,0.13-0.41l0.09-0.05c0,0-0.01-0.1,0-0.1c0.03-0.08,0.06-0.15,0.1-0.23
			c0.11-0.19,0.22-0.38,0.33-0.57c0.02-0.06,0.04-0.12,0.05-0.18c0.24-0.15,0.28-0.4,0.37-0.62c0.05-0.04,0.07-0.09,0.05-0.16
			c0.24-0.14,0.29-0.39,0.38-0.61c0.06-0.05,0.08-0.1,0.07-0.17c1.26-1.75,2.02-3.72,3.15-5.53c0.19-0.05,0.21-0.19,0.21-0.33
			c0.17-0.09,0.22-0.23,0.22-0.39c0.17-0.08,0.21-0.22,0.21-0.38l0.05-0.03c0,0-0.01-0.06-0.01-0.06c0.29-0.24,0.45-0.54,0.49-0.89
			c0.05-0.1,0.1-0.2,0.15-0.31c0.17-0.12,0.25-0.27,0.2-0.47c0.07-0.15,0.13-0.3,0.2-0.44c0.08-0.11,0.17-0.22,0.25-0.32
			c0.06-0.02,0.12-0.04,0.18-0.06c0.55,0.17,0.52,0.72,0.86,1.03c0.51,1.39,1.3,2.65,2.1,3.91c0,0-0.02,0.08-0.02,0.08l0.09,0.03
			c0.01,0.26,0.15,0.47,0.34,0.66c0.03,0.05,0.06,0.09,0.09,0.14c0.07,0.14,0.15,0.28,0.22,0.41c-0.01,0.16,0.06,0.29,0.21,0.38
			c0,0,0.01,0.01,0.01,0.01c0.06,0.1,0.12,0.21,0.17,0.31c0.06,0.71,0.67,1.19,0.91,1.82c-0.02,0.13,0.05,0.2,0.17,0.24
			c-0.01,0.06,0,0.1,0.04,0.14c-0.02,0.13,0.04,0.2,0.18,0.22c0,0-0.02-0.01-0.02-0.01c0.07,0.08,0.14,0.16,0.21,0.23
			c0,0-0.03-0.03-0.03-0.03c0,0.19,0.08,0.34,0.25,0.44c-0.02,0.14,0.04,0.25,0.18,0.32c0.01,0.18,0.08,0.35,0.25,0.46
			c0.06,0.11,0.11,0.22,0.17,0.33c0.03,0.05,0.05,0.09,0.08,0.14c0.11,0.21,0.23,0.42,0.34,0.64c0.03,0.05,0.06,0.09,0.09,0.14
			c0,0,0.01,0.03,0.01,0.03c0.06,0.1,0.11,0.2,0.17,0.3l-0.01,0.06c0,0,0.06,0.03,0.06,0.03c-0.01,0.16,0.05,0.29,0.2,0.37
			c0,0,0.01,0.01,0.01,0.01c0.06,0.1,0.12,0.21,0.17,0.31c0.79,1.78,1.93,3.4,2.86,5.12c1.14,2.12,2.37,4.18,3.58,6.26
			c0.51,0.88,0.61,1.83,0.24,2.79c-0.29,0.37-0.54,0.77-0.62,1.23c-0.19,0.11-0.24,0.28-0.25,0.47c-0.06,0.1-0.12,0.2-0.18,0.31
			l-0.05,0.03c0,0,0.02,0.06,0.02,0.06c-0.06,0.1-0.12,0.2-0.18,0.3c0,0-0.01,0.01-0.01,0.01c-0.17,0.08-0.22,0.22-0.21,0.38
			l-0.05,0.03c0,0,0.02,0.05,0.02,0.05c-0.08,0.1-0.17,0.2-0.25,0.29c-0.59,0.9-1.1,1.83-1.48,2.82c-0.06,0.1-0.11,0.2-0.17,0.3
			l-0.06,0.04c0,0,0.01,0.06,0.01,0.06c-0.06,0.1-0.11,0.2-0.17,0.3c-0.08,0.13-0.15,0.27-0.23,0.4c-0.16,0.09-0.22,0.22-0.21,0.38
			c-0.07,0.13-0.15,0.26-0.22,0.39c-0.17,0.08-0.21,0.22-0.21,0.38l-0.05,0.02c0,0,0.01,0.05,0.01,0.05
			c-0.15,0.23-0.3,0.46-0.45,0.68c-0.43,0.54-0.73,1.14-1,1.76c-0.17,0.32-0.33,0.64-0.5,0.95c-0.22,0.21-0.4,0.45-0.4,0.76
			c-0.15,0.1-0.22,0.25-0.22,0.42c0,0,0.01-0.01,0.01-0.01c-0.17,0.09-0.21,0.24-0.21,0.4c0,0,0,0,0,0
			c-0.16,0.09-0.22,0.23-0.22,0.39c-0.16,0.09-0.2,0.23-0.2,0.39c-0.17,0.09-0.22,0.23-0.22,0.39c0,0-0.03,0.07-0.03,0.07
			c-0.06,0.1-0.12,0.21-0.18,0.31c0,0,0,0,0,0c-0.17,0.09-0.21,0.23-0.21,0.39c-0.18,0.12-0.24,0.29-0.25,0.48
			c-0.05,0.1-0.11,0.19-0.16,0.29c-0.09,0.17-0.18,0.33-0.27,0.5c-0.42,0.57-0.83,1.15-1.01,1.83c-0.08,0.13-0.16,0.26-0.25,0.38
			c-0.06,0.13-0.13,0.26-0.19,0.39l-0.06,0.04c0,0,0.01,0.06,0.01,0.06c-0.06,0.1-0.11,0.19-0.17,0.29c0,0-0.01,0.02-0.01,0.02
			c-0.16,0.08-0.21,0.22-0.2,0.37c-0.18,0.12-0.25,0.29-0.27,0.48c-0.05,0.1-0.11,0.19-0.16,0.29l-0.06,0.04
			c0,0,0.01,0.07,0.01,0.07c-0.23,0.18-0.37,0.4-0.39,0.67c-0.94,1.19-1.5,2.57-2.15,3.89c-0.14,0.29-0.52,0.5-0.47,0.87
			c-0.23,0.25-0.38,0.54-0.44,0.86c0,0-0.01,0.06-0.01,0.06c-0.32,0.23-0.47,0.56-0.64,0.88c0,0,0.02-0.01,0.02-0.01
			c-0.13,0.04-0.21,0.1-0.19,0.24c-0.32,0.34-0.63,0.29-1.11,0.2c-3.18-0.62-6.05-2.03-9.17-2.8c-4.71-1.16-9.49-1.98-14.31-2.65
			c-1.67-0.23-1.77-0.34-1.02-1.74c1.01-1.87,2.1-3.7,3.14-5.56c0.07-0.13,0.06-0.31,0.08-0.46c0.25-0.11,0.36-0.28,0.34-0.53
			c0.04-0.05,0.08-0.09,0.13-0.14c0.35-0.11,0.23-0.47,0.42-0.66c0,0-0.01,0.01-0.01,0.01c0.3-0.1,0.37-0.34,0.41-0.59l0.06-0.03
			c0,0-0.01-0.06-0.01-0.06c0.06-0.1,0.12-0.19,0.18-0.29c0,0,0.01-0.01,0.01-0.01c0.17-0.08,0.22-0.22,0.22-0.38
			c0.16-0.09,0.21-0.23,0.21-0.39c0.36-0.31,0.52-0.68,0.49-1.13c0.53-0.78,0.92-1.61,1.31-2.45c0.41-0.88,1.11-1.66,1.6-2.54
			c2.74-4.97,5.52-9.93,8.27-14.89c0.23-0.42,0.4-0.87,0.6-1.31c0.3-0.1,0.51-0.27,0.54-0.57c0.03-0.07,0.07-0.15,0.1-0.22
			c0.15-0.08,0.22-0.2,0.2-0.36c0.16-0.1,0.23-0.25,0.23-0.42c0.16-0.08,0.21-0.2,0.2-0.36c0.19-0.12,0.27-0.29,0.27-0.5
			c0.06-0.09,0.11-0.18,0.17-0.28l0.06-0.04c0,0-0.01-0.06-0.01-0.06c0.24-0.18,0.37-0.4,0.38-0.68l0.06-0.03
			c0,0-0.01-0.06-0.01-0.06C778.81,466.61,778.94,466.38,778.95,466.11z M778.45,503.3c3.18,0.07,5.25-2.95,3.74-5.54
			c-0.37-0.63-0.34-1.08,0.03-1.67c2.15-3.43,4.28-6.87,6.38-10.33c0.45-0.74,0.84-1.23,1.99-1.21c1.93,0.04,3.29-1.11,3.74-2.79
			c0.42-1.56-0.39-3.25-1.96-4.07c-1.52-0.8-3.64-0.58-4.9,0.51c-1.28,1.11-1.69,2.95-0.79,4.37c0.42,0.66,0.26,1.1-0.1,1.67
			c-2.14,3.44-4.27,6.88-6.36,10.34c-0.49,0.81-0.98,1.31-2.16,1.36c-2.24,0.1-3.79,1.84-3.69,3.82
			C774.49,501.73,776.24,503.25,778.45,503.3z M786.68,466.61c-3.18,0.02-5.08,2.85-3.69,5.52c0.22,0.42,0.4,0.76,0.09,1.25
			c-2.24,3.61-4.44,7.23-6.64,10.86c-0.34,0.56-0.72,0.83-1.49,0.85c-1.7,0.04-3.04,0.74-3.71,2.22c-0.75,1.63-0.18,3.44,1.34,4.42
			c1.6,1.03,3.68,0.98,5.19-0.14c1.42-1.05,1.92-2.93,1-4.48c-0.45-0.77-0.35-1.33,0.08-2.03c2.13-3.44,4.23-6.9,6.31-10.36
			c0.33-0.54,0.64-0.77,1.39-0.76c2.44,0.02,4.26-1.68,4.19-3.81C790.68,468.18,788.85,466.59,786.68,466.61z"/>
	</g>
</g>
</svg>
